<svg width="21" height="20" viewBox="0 0 21 20" fill="none" xmlns="http://www.w3.org/2000/svg">
<g clip-path="url(#clip0)">
<path d="M6.20575 13.3605L1.33093 14.6773C0.776877 14.8268 0.736126 15.5491 1.27 15.7524L3.49565 16.5999L4.40207 18.6809C4.62071 19.1808 5.39219 19.1412 5.55184 18.6239L6.9602 14.0659C7.09285 13.6372 6.66703 13.2357 6.20575 13.3605Z" fill="#fff"/>
<path d="M17.6479 9.34976H5.46084C4.62084 9.34976 3.93745 8.71078 3.93745 7.92538C3.93745 7.13997 4.62084 6.501 5.46084 6.501H18.1165C18.3276 6.84125 18.7212 7.07075 19.1713 7.07075C19.8433 7.07075 20.39 6.55957 20.39 5.93124C20.39 5.51041 20.1445 5.14239 19.7806 4.94504C19.7806 4.58894 19.7806 1.76774 19.7806 1.37323C19.7806 1.05844 19.5079 0.803474 19.1713 0.803474H16.4292C16.0925 0.803474 15.8198 1.05844 15.8198 1.37323V3.36736C15.8198 3.68215 16.0925 3.93711 16.4292 3.93711H18.5619V4.94504C18.3774 5.0451 18.2235 5.189 18.1165 5.36149H5.46084C3.94884 5.36149 2.71875 6.51164 2.71875 7.92538C2.71875 9.33911 3.94884 10.4893 5.46084 10.4893H17.6479C18.4879 10.4893 19.1713 11.1282 19.1713 11.9136C19.1713 12.699 18.4879 13.338 17.6479 13.338H8.5076C8.17104 13.338 7.89824 13.5931 7.89824 13.9078C7.89824 14.2224 8.17104 14.4775 8.5076 14.4775H17.6479C19.1599 14.4775 20.39 13.3274 20.39 11.9136C20.39 10.4999 19.1599 9.34976 17.6479 9.34976Z" fill="#fff"/>
</g>
<defs>
<clipPath id="clip0">
<rect width="19.4984" height="18.2312" fill="#fff" transform="translate(0.891602 0.803467)"/>
</clipPath>
</defs>
</svg>
