<svg width="13" height="13" viewBox="0 0 13 13" fill="none" xmlns="http://www.w3.org/2000/svg">
<path d="M7.26215 6.5034L12.8347 0.930818C13.0498 0.723099 13.0557 0.380371 12.848 0.165293C12.6403 -0.0497851 12.2976 -0.0557489 12.0825 0.151969C12.078 0.156315 12.0736 0.160756 12.0692 0.165293L6.4966 5.73787L0.924046 0.165261C0.708969 -0.0424573 0.366241 -0.0364935 0.158524 0.178584C-0.0441177 0.388396 -0.0441177 0.721006 0.158524 0.930818L5.73108 6.5034L0.158524 12.076C-0.0528414 12.2874 -0.0528414 12.6301 0.158524 12.8415C0.369921 13.0528 0.712649 13.0528 0.924046 12.8415L6.4966 7.26892L12.0692 12.8415C12.2842 13.0492 12.627 13.0433 12.8347 12.8282C13.0373 12.6184 13.0373 12.2858 12.8347 12.076L7.26215 6.5034Z" fill="white"/>
</svg>
