<svg width="21" height="20" viewBox="0 0 21 20" fill="none" xmlns="http://www.w3.org/2000/svg">
<g clip-path="url(#clip0)">
<path d="M17.5189 0.803467C17.1343 0.803467 16.8226 1.09498 16.8226 1.45459V3.83309C13.2374 0.587683 7.51725 0.674287 4.04627 4.02644C2.41049 5.60625 1.49793 7.72017 1.50246 9.91905C1.50246 10.2787 1.81423 10.5702 2.19884 10.5702C2.58345 10.5702 2.89518 10.2787 2.89518 9.91905C2.89604 5.96346 6.32622 2.75742 10.5568 2.75822C12.7053 2.7586 14.7549 3.6027 16.2056 5.08453L13.1207 6.04621C12.7554 6.15986 12.5577 6.5289 12.6792 6.8705C12.8008 7.21211 13.1955 7.39695 13.5608 7.2833L17.739 5.98108C18.0242 5.89227 18.2163 5.6423 18.2154 5.36124V1.45456C18.2153 1.09498 17.9036 0.803467 17.5189 0.803467Z" fill="#4894F0"/>
<path d="M18.9116 9.26799C18.527 9.26799 18.2152 9.5595 18.2152 9.91911C18.2144 13.8747 14.7842 17.0807 10.5536 17.0799C8.40505 17.0796 6.35548 16.2355 4.90477 14.7536L7.98967 13.792C8.35502 13.6783 8.55271 13.3093 8.43116 12.9677C8.30961 12.6261 7.91492 12.4412 7.54957 12.5549L3.37136 13.8571C3.08614 13.9459 2.89408 14.1959 2.89502 14.4769V18.3836C2.89502 18.7432 3.2068 19.0347 3.59141 19.0347C3.97601 19.0347 4.28779 18.7432 4.28779 18.3836V16.0051C7.87298 19.2505 13.5931 19.1639 17.0641 15.8117C18.6999 14.2319 19.6124 12.118 19.6079 9.91911C19.608 9.5595 19.2962 9.26799 18.9116 9.26799Z" fill="#4894F0"/>
</g>
<defs>
<clipPath id="clip0">
<rect width="19.4984" height="18.2312" fill="#4894F0" transform="translate(0.806152 0.803467)"/>
</clipPath>
</defs>
</svg>
