<svg width="19" height="19" viewBox="0 0 19 19" fill="none" xmlns="http://www.w3.org/2000/svg">
<g clip-path="url(#clip0)">
<path d="M14.5469 8.0032V1.79448C14.5469 1.54631 14.3825 1.32815 14.144 1.25959L9.83935 0.0217855C9.74338 -0.00575659 9.64177 -0.00706121 9.54508 0.0180166L5.09848 1.17754L0.774948 0.0190313C0.607811 -0.0257608 0.429222 0.00975398 0.291946 0.115139C0.154671 0.220379 0.0742188 0.383602 0.0742188 0.556682V14.3366C0.0742188 14.5887 0.243675 14.8093 0.48735 14.8744L4.94047 16.0627C4.98744 16.0754 5.03571 16.0816 5.08398 16.0816C5.13109 16.0816 5.17806 16.0756 5.22387 16.0638L8.08535 15.3204C8.86001 17.4639 10.9149 19 13.3223 19C16.3916 19 18.8887 16.503 18.8887 13.4336C18.8887 10.785 17.029 8.56274 14.5469 8.0032ZM13.4336 7.86868C13.3966 7.86795 13.3595 7.86723 13.3223 7.86723C12.1842 7.86723 11.1248 8.21093 10.2422 8.79946V1.29597L13.4336 2.2137V7.86868ZM1.1875 1.2822L4.53981 2.18036V14.8036L1.1875 13.909V1.2822ZM5.65309 14.802V2.18341L9.1289 1.27713V9.76619C9.1289 9.76966 9.12934 9.773 9.12948 9.77648C8.27452 10.7554 7.75586 12.0349 7.75586 13.4336C7.75586 13.7076 7.77615 13.9769 7.81457 14.2406L5.65309 14.802ZM13.3223 17.8868C11.2386 17.8868 9.48492 16.4482 9.00149 14.5123C9.00105 14.5107 9.00091 14.5091 9.00062 14.5076C9.00033 14.5068 9.00004 14.5059 8.99975 14.505C8.91466 14.1618 8.86914 13.803 8.86914 13.4336C8.86914 10.9782 10.8668 8.98051 13.3223 8.98051C15.7777 8.98051 17.7754 10.9782 17.7754 13.4336C17.7754 15.8891 15.7777 17.8868 13.3223 17.8868Z" fill="#4290ED"/>
<path d="M14.4793 10.3576C14.3749 10.2532 14.2333 10.1945 14.0857 10.1945C13.9382 10.1945 13.7966 10.2532 13.6922 10.3576L10.7008 13.3489C10.5965 13.4533 10.5377 13.5948 10.5377 13.7424L10.5376 15.317C10.5376 15.4646 10.5963 15.6062 10.7007 15.7106C10.8052 15.815 10.9467 15.8737 11.0944 15.8737L12.6689 15.8735C12.8165 15.8735 12.9581 15.8148 13.0625 15.7105L16.0537 12.7192C16.2711 12.5018 16.2711 12.1494 16.0537 11.932L14.4793 10.3576ZM12.4381 14.7603L11.6509 14.7604L11.651 13.9731L11.9602 13.6638L12.7475 14.4511L12.4381 14.7603ZM13.5346 13.6639L12.7475 12.8767L14.0857 11.5384L14.8729 12.3257L13.5346 13.6639Z" fill="#4290ED"/>
</g>
<defs>
<clipPath id="clip0">
<rect width="19" height="19" fill="white"/>
</clipPath>
</defs>
</svg>
