<svg width="202" height="350" viewBox="0 0 202 350" fill="none" xmlns="http://www.w3.org/2000/svg">
<line x1="1.5" y1="48" x2="1.49999" y2="287" stroke="#5398F9" stroke-width="3"/>
<line x1="91" y1="49.5" x2="1" y2="49.5" stroke="#5398F9" stroke-width="3"/>
<line x1="91" y1="114.5" x2="1" y2="114.5" stroke="#5398F9" stroke-width="3"/>
<line x1="106" y1="227.5" x2="1" y2="227.5" stroke="#5398F9" stroke-width="3"/>
<line x1="199" y1="268.5" x2="133" y2="268.5" stroke="#5398F9" stroke-width="3"/>
<line x1="106" y1="285.5" x2="1" y2="285.5" stroke="#5398F9" stroke-width="3"/>
<line x1="104.5" y1="350" x2="104.5" y2="245" stroke="#5398F9" stroke-width="3"/>
<line x1="103" y1="348.5" x2="201" y2="348.5" stroke="#5398F9" stroke-width="3"/>
<line x1="90.5" y1="92" x2="90.5" y2="2" stroke="#5398F9" stroke-width="3"/>
<line x1="90.5" y1="197" x2="90.5" y2="113" stroke="#5398F9" stroke-width="3"/>
<line x1="89" y1="1.5" x2="199" y2="1.5" stroke="#5398F9" stroke-width="3"/>
<line x1="200.5" y1="6.55671e-08" x2="200.5" y2="350" stroke="#5398F9" stroke-width="3"/>
<rect y="49" width="106" height="177" fill="#748CAB" fill-opacity="0.5"/>
<rect x="106" y="3" width="93" height="264" fill="#748CAB" fill-opacity="0.5"/>
<rect x="92" y="3" width="17" height="47" fill="#626E7D"/>
<path d="M24.98 87H23.692L19.1 82.254V87H18.12V77.2H19.1V81.68L23.552 77.2H24.84L20.136 81.96L24.98 87ZM27.0391 78.32C26.9084 78.4507 26.7498 78.516 26.5631 78.516C26.3764 78.516 26.2178 78.4507 26.0871 78.32C25.9564 78.1893 25.8911 78.0307 25.8911 77.844C25.8911 77.6573 25.9564 77.4987 26.0871 77.368C26.2178 77.2373 26.3764 77.172 26.5631 77.172C26.7498 77.172 26.9084 77.2373 27.0391 77.368C27.1698 77.4987 27.2351 77.6573 27.2351 77.844C27.2351 78.0307 27.1698 78.1893 27.0391 78.32ZM26.1011 87V80H27.0251V87H26.1011ZM32.6959 80.896H30.6799V85.138C30.6799 85.5207 30.7545 85.796 30.9039 85.964C31.0532 86.1227 31.2772 86.2067 31.5759 86.216C31.8745 86.216 32.2479 86.2067 32.6959 86.188V87C31.7159 87.1493 30.9785 87.0793 30.4839 86.79C29.9985 86.5007 29.7559 85.95 29.7559 85.138V80.896H28.2859V80H29.7559V78.32L30.6799 78.04V80H32.6959V80.896ZM37.074 87.168C36.0194 87.168 35.142 86.818 34.442 86.118C33.742 85.4087 33.392 84.536 33.392 83.5C33.392 82.464 33.742 81.596 34.442 80.896C35.142 80.1867 36.0194 79.832 37.074 79.832C37.7647 79.832 38.3854 80 38.936 80.336C39.4867 80.6627 39.888 81.106 40.14 81.666L39.384 82.1C39.1974 81.68 38.894 81.3487 38.474 81.106C38.0634 80.854 37.5967 80.728 37.074 80.728C36.2994 80.728 35.646 80.9987 35.114 81.54C34.582 82.072 34.316 82.7253 34.316 83.5C34.316 84.2747 34.582 84.9327 35.114 85.474C35.646 86.006 36.2994 86.272 37.074 86.272C37.5967 86.272 38.0634 86.1507 38.474 85.908C38.8847 85.656 39.2067 85.32 39.44 84.9L40.21 85.348C39.9207 85.908 39.496 86.3513 38.936 86.678C38.376 87.0047 37.7554 87.168 37.074 87.168ZM44.8126 79.832C45.662 79.832 46.3293 80.0933 46.8146 80.616C47.3093 81.1293 47.5566 81.8247 47.5566 82.702V87H46.6326V82.702C46.6326 82.0767 46.4646 81.5913 46.1286 81.246C45.802 80.9007 45.3353 80.728 44.7286 80.728C44.0566 80.728 43.5106 80.9427 43.0906 81.372C42.6706 81.792 42.4606 82.4453 42.4606 83.332V87H41.5366V77.2H42.4606V81.092C42.9833 80.252 43.7673 79.832 44.8126 79.832ZM52.5773 79.832C53.6133 79.832 54.4486 80.2007 55.0833 80.938C55.7273 81.666 56.0493 82.5293 56.0493 83.528C56.0493 83.6307 56.0399 83.7753 56.0213 83.962H49.8753C49.9686 84.6713 50.2673 85.236 50.7713 85.656C51.2846 86.0667 51.9146 86.272 52.6613 86.272C53.1933 86.272 53.6506 86.1647 54.0333 85.95C54.4253 85.726 54.7193 85.4367 54.9153 85.082L55.7273 85.558C55.4193 86.0527 54.9993 86.4447 54.4673 86.734C53.9353 87.0233 53.3286 87.168 52.6473 87.168C51.5459 87.168 50.6499 86.8227 49.9593 86.132C49.2686 85.4413 48.9233 84.564 48.9233 83.5C48.9233 82.4547 49.2639 81.582 49.9453 80.882C50.6266 80.182 51.5039 79.832 52.5773 79.832ZM52.5773 80.728C51.8493 80.728 51.2379 80.9473 50.7433 81.386C50.2579 81.8153 49.9686 82.3753 49.8753 83.066H55.0973C55.0039 82.3287 54.7193 81.7547 54.2433 81.344C53.7673 80.9333 53.2119 80.728 52.5773 80.728ZM60.7951 79.832C61.6444 79.832 62.3117 80.0933 62.7971 80.616C63.2917 81.1293 63.5391 81.8247 63.5391 82.702V87H62.6151V82.702C62.6151 82.0767 62.4471 81.5913 62.1111 81.246C61.7844 80.9007 61.3177 80.728 60.7111 80.728C60.0391 80.728 59.4931 80.9427 59.0731 81.372C58.6531 81.792 58.4431 82.4453 58.4431 83.332V87H57.5191V80H58.4431V81.092C58.9657 80.252 59.7497 79.832 60.7951 79.832Z" fill="white"/>
<path d="M17.552 168.918C18.028 169.123 18.406 169.436 18.686 169.856C18.9753 170.267 19.12 170.738 19.12 171.27C19.12 172.026 18.854 172.67 18.322 173.202C17.79 173.734 17.146 174 16.39 174H12.12V164.2H16.068C16.796 164.2 17.4167 164.461 17.93 164.984C18.4433 165.497 18.7 166.113 18.7 166.832C18.7 167.747 18.3173 168.442 17.552 168.918ZM16.068 165.124H13.1V168.54H16.068C16.5253 168.54 16.9127 168.377 17.23 168.05C17.5567 167.714 17.72 167.308 17.72 166.832C17.72 166.365 17.5567 165.964 17.23 165.628C16.9127 165.292 16.5253 165.124 16.068 165.124ZM16.39 173.076C16.8753 173.076 17.286 172.903 17.622 172.558C17.9673 172.203 18.14 171.774 18.14 171.27C18.14 170.775 17.9673 170.351 17.622 169.996C17.286 169.641 16.8753 169.464 16.39 169.464H13.1V173.076H16.39ZM23.8956 166.832C24.9316 166.832 25.767 167.201 26.4016 167.938C27.0456 168.666 27.3676 169.529 27.3676 170.528C27.3676 170.631 27.3583 170.775 27.3396 170.962H21.1936C21.287 171.671 21.5856 172.236 22.0896 172.656C22.603 173.067 23.233 173.272 23.9796 173.272C24.5116 173.272 24.969 173.165 25.3516 172.95C25.7436 172.726 26.0376 172.437 26.2336 172.082L27.0456 172.558C26.7376 173.053 26.3176 173.445 25.7856 173.734C25.2536 174.023 24.647 174.168 23.9656 174.168C22.8643 174.168 21.9683 173.823 21.2776 173.132C20.587 172.441 20.2416 171.564 20.2416 170.5C20.2416 169.455 20.5823 168.582 21.2636 167.882C21.945 167.182 22.8223 166.832 23.8956 166.832ZM23.8956 167.728C23.1676 167.728 22.5563 167.947 22.0616 168.386C21.5763 168.815 21.287 169.375 21.1936 170.066H26.4156C26.3223 169.329 26.0376 168.755 25.5616 168.344C25.0856 167.933 24.5303 167.728 23.8956 167.728ZM34.8574 164.2H35.7814V174H34.8574V172.628C34.2134 173.655 33.2708 174.168 32.0294 174.168C31.0308 174.168 30.1768 173.813 29.4674 173.104C28.7674 172.395 28.4174 171.527 28.4174 170.5C28.4174 169.473 28.7674 168.605 29.4674 167.896C30.1768 167.187 31.0308 166.832 32.0294 166.832C33.2708 166.832 34.2134 167.345 34.8574 168.372V164.2ZM30.1394 172.474C30.6714 173.006 31.3248 173.272 32.0994 173.272C32.8741 173.272 33.5274 173.006 34.0594 172.474C34.5914 171.933 34.8574 171.275 34.8574 170.5C34.8574 169.725 34.5914 169.072 34.0594 168.54C33.5274 167.999 32.8741 167.728 32.0994 167.728C31.3248 167.728 30.6714 167.999 30.1394 168.54C29.6074 169.072 29.3414 169.725 29.3414 170.5C29.3414 171.275 29.6074 171.933 30.1394 172.474ZM38.6618 168.162C39.0911 167.313 39.8285 166.888 40.8738 166.888V167.784C40.2391 167.784 39.7118 167.971 39.2918 168.344C38.8718 168.717 38.6618 169.305 38.6618 170.108V174H37.7378V167H38.6618V168.162ZM47.5823 173.118C46.873 173.818 46.005 174.168 44.9783 174.168C43.9517 174.168 43.079 173.818 42.3603 173.118C41.651 172.409 41.2963 171.536 41.2963 170.5C41.2963 169.464 41.651 168.596 42.3603 167.896C43.079 167.187 43.9517 166.832 44.9783 166.832C46.005 166.832 46.873 167.187 47.5823 167.896C48.301 168.596 48.6603 169.464 48.6603 170.5C48.6603 171.536 48.301 172.409 47.5823 173.118ZM43.0183 172.474C43.5503 173.006 44.2037 173.272 44.9783 173.272C45.753 173.272 46.4063 173.006 46.9383 172.474C47.4703 171.933 47.7363 171.275 47.7363 170.5C47.7363 169.725 47.4703 169.072 46.9383 168.54C46.4063 167.999 45.753 167.728 44.9783 167.728C44.2037 167.728 43.5503 167.999 43.0183 168.54C42.4863 169.072 42.2203 169.725 42.2203 170.5C42.2203 171.275 42.4863 171.933 43.0183 172.474ZM56.0726 173.118C55.3632 173.818 54.4952 174.168 53.4686 174.168C52.4419 174.168 51.5692 173.818 50.8506 173.118C50.1412 172.409 49.7866 171.536 49.7866 170.5C49.7866 169.464 50.1412 168.596 50.8506 167.896C51.5692 167.187 52.4419 166.832 53.4686 166.832C54.4952 166.832 55.3632 167.187 56.0726 167.896C56.7912 168.596 57.1506 169.464 57.1506 170.5C57.1506 171.536 56.7912 172.409 56.0726 173.118ZM51.5086 172.474C52.0406 173.006 52.6939 173.272 53.4686 173.272C54.2432 173.272 54.8966 173.006 55.4286 172.474C55.9606 171.933 56.2266 171.275 56.2266 170.5C56.2266 169.725 55.9606 169.072 55.4286 168.54C54.8966 167.999 54.2432 167.728 53.4686 167.728C52.6939 167.728 52.0406 167.999 51.5086 168.54C50.9766 169.072 50.7106 169.725 50.7106 170.5C50.7106 171.275 50.9766 171.933 51.5086 172.474ZM66.1588 166.832C66.9428 166.832 67.5728 167.084 68.0488 167.588C68.5341 168.092 68.7768 168.773 68.7768 169.632V174H67.8528V169.632C67.8528 169.025 67.6941 168.559 67.3768 168.232C67.0688 167.896 66.6581 167.728 66.1448 167.728C65.5661 167.728 65.0948 167.924 64.7308 168.316C64.3761 168.699 64.1988 169.301 64.1988 170.122V174H63.2748V169.632C63.2748 169.016 63.1255 168.545 62.8268 168.218C62.5375 167.891 62.1408 167.728 61.6368 167.728C61.0768 167.728 60.6008 167.924 60.2088 168.316C59.8168 168.708 59.6208 169.31 59.6208 170.122V174H58.6968V167H59.6208V168.022C60.1248 167.229 60.8388 166.832 61.7628 166.832C62.7708 166.832 63.4801 167.257 63.8908 168.106C64.3948 167.257 65.1508 166.832 66.1588 166.832ZM73.644 174V173.118L77.172 169.562C78.18 168.554 78.684 167.691 78.684 166.972C78.684 166.347 78.488 165.861 78.096 165.516C77.7133 165.161 77.2513 164.984 76.71 164.984C75.702 164.984 74.9693 165.446 74.512 166.37L73.686 165.88C73.994 165.273 74.414 164.816 74.946 164.508C75.478 164.191 76.066 164.032 76.71 164.032C77.494 164.032 78.18 164.298 78.768 164.83C79.3653 165.353 79.664 166.067 79.664 166.972C79.664 167.541 79.5053 168.087 79.188 168.61C78.8707 169.133 78.4227 169.683 77.844 170.262L75.044 173.048H79.874V174H73.644Z" fill="white"/>
<path d="M106.1 138.076H110.58V139H105.12V129.2H106.1V138.076ZM112.781 130.32C112.651 130.451 112.492 130.516 112.305 130.516C112.119 130.516 111.96 130.451 111.829 130.32C111.699 130.189 111.633 130.031 111.633 129.844C111.633 129.657 111.699 129.499 111.829 129.368C111.96 129.237 112.119 129.172 112.305 129.172C112.492 129.172 112.651 129.237 112.781 129.368C112.912 129.499 112.977 129.657 112.977 129.844C112.977 130.031 112.912 130.189 112.781 130.32ZM111.843 139V132H112.767V139H111.843ZM119.768 132H120.748L117.878 139H116.758L113.888 132H114.868L117.318 138.034L119.768 132ZM122.803 130.32C122.672 130.451 122.513 130.516 122.327 130.516C122.14 130.516 121.981 130.451 121.851 130.32C121.72 130.189 121.655 130.031 121.655 129.844C121.655 129.657 121.72 129.499 121.851 129.368C121.981 129.237 122.14 129.172 122.327 129.172C122.513 129.172 122.672 129.237 122.803 129.368C122.933 129.499 122.999 129.657 122.999 129.844C122.999 130.031 122.933 130.189 122.803 130.32ZM121.865 139V132H122.789V139H121.865ZM128.026 131.832C128.875 131.832 129.542 132.093 130.028 132.616C130.522 133.129 130.77 133.825 130.77 134.702V139H129.846V134.702C129.846 134.077 129.678 133.591 129.342 133.246C129.015 132.901 128.548 132.728 127.942 132.728C127.27 132.728 126.724 132.943 126.304 133.372C125.884 133.792 125.674 134.445 125.674 135.332V139H124.75V132H125.674V133.092C126.196 132.252 126.98 131.832 128.026 131.832ZM138.576 132H139.5V138.72C139.5 139.728 139.155 140.521 138.464 141.1C137.774 141.679 136.948 141.968 135.986 141.968C134.344 141.968 133.238 141.399 132.668 140.26L133.48 139.798C133.9 140.647 134.736 141.072 135.986 141.072C136.789 141.072 137.419 140.857 137.876 140.428C138.343 140.008 138.576 139.439 138.576 138.72V137.628C137.932 138.655 136.99 139.168 135.748 139.168C134.75 139.168 133.896 138.813 133.186 138.104C132.486 137.395 132.136 136.527 132.136 135.5C132.136 134.473 132.486 133.605 133.186 132.896C133.896 132.187 134.75 131.832 135.748 131.832C136.99 131.832 137.932 132.345 138.576 133.372V132ZM133.858 137.474C134.39 138.006 135.044 138.272 135.818 138.272C136.593 138.272 137.246 138.006 137.778 137.474C138.31 136.933 138.576 136.275 138.576 135.5C138.576 134.725 138.31 134.072 137.778 133.54C137.246 132.999 136.593 132.728 135.818 132.728C135.044 132.728 134.39 132.999 133.858 133.54C133.326 134.072 133.06 134.725 133.06 135.5C133.06 136.275 133.326 136.933 133.858 137.474ZM145.881 133.162C146.31 132.313 147.047 131.888 148.093 131.888V132.784C147.458 132.784 146.931 132.971 146.511 133.344C146.091 133.717 145.881 134.305 145.881 135.108V139H144.957V132H145.881V133.162ZM154.801 138.118C154.092 138.818 153.224 139.168 152.197 139.168C151.17 139.168 150.298 138.818 149.579 138.118C148.87 137.409 148.515 136.536 148.515 135.5C148.515 134.464 148.87 133.596 149.579 132.896C150.298 132.187 151.17 131.832 152.197 131.832C153.224 131.832 154.092 132.187 154.801 132.896C155.52 133.596 155.879 134.464 155.879 135.5C155.879 136.536 155.52 137.409 154.801 138.118ZM150.237 137.474C150.769 138.006 151.422 138.272 152.197 138.272C152.972 138.272 153.625 138.006 154.157 137.474C154.689 136.933 154.955 136.275 154.955 135.5C154.955 134.725 154.689 134.072 154.157 133.54C153.625 132.999 152.972 132.728 152.197 132.728C151.422 132.728 150.769 132.999 150.237 133.54C149.705 134.072 149.439 134.725 149.439 135.5C149.439 136.275 149.705 136.933 150.237 137.474ZM163.291 138.118C162.582 138.818 161.714 139.168 160.687 139.168C159.661 139.168 158.788 138.818 158.069 138.118C157.36 137.409 157.005 136.536 157.005 135.5C157.005 134.464 157.36 133.596 158.069 132.896C158.788 132.187 159.661 131.832 160.687 131.832C161.714 131.832 162.582 132.187 163.291 132.896C164.01 133.596 164.369 134.464 164.369 135.5C164.369 136.536 164.01 137.409 163.291 138.118ZM158.727 137.474C159.259 138.006 159.913 138.272 160.687 138.272C161.462 138.272 162.115 138.006 162.647 137.474C163.179 136.933 163.445 136.275 163.445 135.5C163.445 134.725 163.179 134.072 162.647 133.54C162.115 132.999 161.462 132.728 160.687 132.728C159.913 132.728 159.259 132.999 158.727 133.54C158.195 134.072 157.929 134.725 157.929 135.5C157.929 136.275 158.195 136.933 158.727 137.474ZM173.378 131.832C174.162 131.832 174.792 132.084 175.268 132.588C175.753 133.092 175.996 133.773 175.996 134.632V139H175.072V134.632C175.072 134.025 174.913 133.559 174.596 133.232C174.288 132.896 173.877 132.728 173.364 132.728C172.785 132.728 172.314 132.924 171.95 133.316C171.595 133.699 171.418 134.301 171.418 135.122V139H170.494V134.632C170.494 134.016 170.344 133.545 170.046 133.218C169.756 132.891 169.36 132.728 168.856 132.728C168.296 132.728 167.82 132.924 167.428 133.316C167.036 133.708 166.84 134.31 166.84 135.122V139H165.916V132H166.84V133.022C167.344 132.229 168.058 131.832 168.982 131.832C169.99 131.832 170.699 132.257 171.11 133.106C171.614 132.257 172.37 131.832 173.378 131.832Z" fill="white"/>
<path d="M23.552 254.918C24.028 255.123 24.406 255.436 24.686 255.856C24.9753 256.267 25.12 256.738 25.12 257.27C25.12 258.026 24.854 258.67 24.322 259.202C23.79 259.734 23.146 260 22.39 260H18.12V250.2H22.068C22.796 250.2 23.4167 250.461 23.93 250.984C24.4433 251.497 24.7 252.113 24.7 252.832C24.7 253.747 24.3173 254.442 23.552 254.918ZM22.068 251.124H19.1V254.54H22.068C22.5253 254.54 22.9127 254.377 23.23 254.05C23.5567 253.714 23.72 253.308 23.72 252.832C23.72 252.365 23.5567 251.964 23.23 251.628C22.9127 251.292 22.5253 251.124 22.068 251.124ZM22.39 259.076C22.8753 259.076 23.286 258.903 23.622 258.558C23.9673 258.203 24.14 257.774 24.14 257.27C24.14 256.775 23.9673 256.351 23.622 255.996C23.286 255.641 22.8753 255.464 22.39 255.464H19.1V259.076H22.39ZM32.6816 253H33.6056V260H32.6816V258.628C32.0376 259.655 31.095 260.168 29.8536 260.168C28.855 260.168 28.001 259.813 27.2916 259.104C26.5916 258.395 26.2416 257.527 26.2416 256.5C26.2416 255.473 26.5916 254.605 27.2916 253.896C28.001 253.187 28.855 252.832 29.8536 252.832C31.095 252.832 32.0376 253.345 32.6816 254.372V253ZM27.9636 258.474C28.4956 259.006 29.149 259.272 29.9236 259.272C30.6983 259.272 31.3516 259.006 31.8836 258.474C32.4156 257.933 32.6816 257.275 32.6816 256.5C32.6816 255.725 32.4156 255.072 31.8836 254.54C31.3516 253.999 30.6983 253.728 29.9236 253.728C29.149 253.728 28.4956 253.999 27.9636 254.54C27.4316 255.072 27.1656 255.725 27.1656 256.5C27.1656 257.275 27.4316 257.933 27.9636 258.474ZM39.272 253.896H37.256V258.138C37.256 258.521 37.3307 258.796 37.48 258.964C37.6294 259.123 37.8534 259.207 38.152 259.216C38.4507 259.216 38.824 259.207 39.272 259.188V260C38.292 260.149 37.5547 260.079 37.06 259.79C36.5747 259.501 36.332 258.95 36.332 258.138V253.896H34.862V253H36.332V251.32L37.256 251.04V253H39.272V253.896ZM44.088 252.832C44.9374 252.832 45.6047 253.093 46.09 253.616C46.5847 254.129 46.832 254.825 46.832 255.702V260H45.908V255.702C45.908 255.077 45.74 254.591 45.404 254.246C45.0774 253.901 44.6107 253.728 44.004 253.728C43.332 253.728 42.786 253.943 42.366 254.372C41.946 254.792 41.736 255.445 41.736 256.332V260H40.812V250.2H41.736V254.092C42.2587 253.252 43.0427 252.832 44.088 252.832ZM49.5427 254.162C49.972 253.313 50.7093 252.888 51.7547 252.888V253.784C51.12 253.784 50.5927 253.971 50.1727 254.344C49.7527 254.717 49.5427 255.305 49.5427 256.108V260H48.6187V253H49.5427V254.162ZM58.4632 259.118C57.7539 259.818 56.8859 260.168 55.8592 260.168C54.8325 260.168 53.9599 259.818 53.2412 259.118C52.5319 258.409 52.1772 257.536 52.1772 256.5C52.1772 255.464 52.5319 254.596 53.2412 253.896C53.9599 253.187 54.8325 252.832 55.8592 252.832C56.8859 252.832 57.7539 253.187 58.4632 253.896C59.1819 254.596 59.5412 255.464 59.5412 256.5C59.5412 257.536 59.1819 258.409 58.4632 259.118ZM53.8992 258.474C54.4312 259.006 55.0845 259.272 55.8592 259.272C56.6339 259.272 57.2872 259.006 57.8192 258.474C58.3512 257.933 58.6172 257.275 58.6172 256.5C58.6172 255.725 58.3512 255.072 57.8192 254.54C57.2872 253.999 56.6339 253.728 55.8592 253.728C55.0845 253.728 54.4312 253.999 53.8992 254.54C53.3672 255.072 53.1012 255.725 53.1012 256.5C53.1012 257.275 53.3672 257.933 53.8992 258.474ZM66.9534 259.118C66.2441 259.818 65.3761 260.168 64.3494 260.168C63.3228 260.168 62.4501 259.818 61.7314 259.118C61.0221 258.409 60.6674 257.536 60.6674 256.5C60.6674 255.464 61.0221 254.596 61.7314 253.896C62.4501 253.187 63.3228 252.832 64.3494 252.832C65.3761 252.832 66.2441 253.187 66.9534 253.896C67.6721 254.596 68.0314 255.464 68.0314 256.5C68.0314 257.536 67.6721 258.409 66.9534 259.118ZM62.3894 258.474C62.9214 259.006 63.5748 259.272 64.3494 259.272C65.1241 259.272 65.7774 259.006 66.3094 258.474C66.8414 257.933 67.1074 257.275 67.1074 256.5C67.1074 255.725 66.8414 255.072 66.3094 254.54C65.7774 253.999 65.1241 253.728 64.3494 253.728C63.5748 253.728 62.9214 253.999 62.3894 254.54C61.8574 255.072 61.5914 255.725 61.5914 256.5C61.5914 257.275 61.8574 257.933 62.3894 258.474ZM77.0397 252.832C77.8237 252.832 78.4537 253.084 78.9297 253.588C79.415 254.092 79.6577 254.773 79.6577 255.632V260H78.7337V255.632C78.7337 255.025 78.575 254.559 78.2577 254.232C77.9497 253.896 77.539 253.728 77.0257 253.728C76.447 253.728 75.9757 253.924 75.6117 254.316C75.257 254.699 75.0797 255.301 75.0797 256.122V260H74.1557V255.632C74.1557 255.016 74.0063 254.545 73.7077 254.218C73.4183 253.891 73.0217 253.728 72.5177 253.728C71.9577 253.728 71.4817 253.924 71.0897 254.316C70.6977 254.708 70.5017 255.31 70.5017 256.122V260H69.5777V253H70.5017V254.022C71.0057 253.229 71.7197 252.832 72.6437 252.832C73.6517 252.832 74.361 253.257 74.7717 254.106C75.2757 253.257 76.0317 252.832 77.0397 252.832Z" fill="white" fill-opacity="0.5"/>
<path d="M123.552 308.918C124.028 309.123 124.406 309.436 124.686 309.856C124.975 310.267 125.12 310.738 125.12 311.27C125.12 312.026 124.854 312.67 124.322 313.202C123.79 313.734 123.146 314 122.39 314H118.12V304.2H122.068C122.796 304.2 123.417 304.461 123.93 304.984C124.443 305.497 124.7 306.113 124.7 306.832C124.7 307.747 124.317 308.442 123.552 308.918ZM122.068 305.124H119.1V308.54H122.068C122.525 308.54 122.913 308.377 123.23 308.05C123.557 307.714 123.72 307.308 123.72 306.832C123.72 306.365 123.557 305.964 123.23 305.628C122.913 305.292 122.525 305.124 122.068 305.124ZM122.39 313.076C122.875 313.076 123.286 312.903 123.622 312.558C123.967 312.203 124.14 311.774 124.14 311.27C124.14 310.775 123.967 310.351 123.622 309.996C123.286 309.641 122.875 309.464 122.39 309.464H119.1V313.076H122.39ZM129.896 306.832C130.932 306.832 131.767 307.201 132.402 307.938C133.046 308.666 133.368 309.529 133.368 310.528C133.368 310.631 133.358 310.775 133.34 310.962H127.194C127.287 311.671 127.586 312.236 128.09 312.656C128.603 313.067 129.233 313.272 129.98 313.272C130.512 313.272 130.969 313.165 131.352 312.95C131.744 312.726 132.038 312.437 132.234 312.082L133.046 312.558C132.738 313.053 132.318 313.445 131.786 313.734C131.254 314.023 130.647 314.168 129.966 314.168C128.864 314.168 127.968 313.823 127.278 313.132C126.587 312.441 126.242 311.564 126.242 310.5C126.242 309.455 126.582 308.582 127.264 307.882C127.945 307.182 128.822 306.832 129.896 306.832ZM129.896 307.728C129.168 307.728 128.556 307.947 128.062 308.386C127.576 308.815 127.287 309.375 127.194 310.066H132.416C132.322 309.329 132.038 308.755 131.562 308.344C131.086 307.933 130.53 307.728 129.896 307.728ZM140.857 304.2H141.781V314H140.857V312.628C140.213 313.655 139.271 314.168 138.029 314.168C137.031 314.168 136.177 313.813 135.467 313.104C134.767 312.395 134.417 311.527 134.417 310.5C134.417 309.473 134.767 308.605 135.467 307.896C136.177 307.187 137.031 306.832 138.029 306.832C139.271 306.832 140.213 307.345 140.857 308.372V304.2ZM136.139 312.474C136.671 313.006 137.325 313.272 138.099 313.272C138.874 313.272 139.527 313.006 140.059 312.474C140.591 311.933 140.857 311.275 140.857 310.5C140.857 309.725 140.591 309.072 140.059 308.54C139.527 307.999 138.874 307.728 138.099 307.728C137.325 307.728 136.671 307.999 136.139 308.54C135.607 309.072 135.341 309.725 135.341 310.5C135.341 311.275 135.607 311.933 136.139 312.474ZM144.662 308.162C145.091 307.313 145.828 306.888 146.874 306.888V307.784C146.239 307.784 145.712 307.971 145.292 308.344C144.872 308.717 144.662 309.305 144.662 310.108V314H143.738V307H144.662V308.162ZM153.582 313.118C152.873 313.818 152.005 314.168 150.978 314.168C149.952 314.168 149.079 313.818 148.36 313.118C147.651 312.409 147.296 311.536 147.296 310.5C147.296 309.464 147.651 308.596 148.36 307.896C149.079 307.187 149.952 306.832 150.978 306.832C152.005 306.832 152.873 307.187 153.582 307.896C154.301 308.596 154.66 309.464 154.66 310.5C154.66 311.536 154.301 312.409 153.582 313.118ZM149.018 312.474C149.55 313.006 150.204 313.272 150.978 313.272C151.753 313.272 152.406 313.006 152.938 312.474C153.47 311.933 153.736 311.275 153.736 310.5C153.736 309.725 153.47 309.072 152.938 308.54C152.406 307.999 151.753 307.728 150.978 307.728C150.204 307.728 149.55 307.999 149.018 308.54C148.486 309.072 148.22 309.725 148.22 310.5C148.22 311.275 148.486 311.933 149.018 312.474ZM162.073 313.118C161.363 313.818 160.495 314.168 159.469 314.168C158.442 314.168 157.569 313.818 156.851 313.118C156.141 312.409 155.787 311.536 155.787 310.5C155.787 309.464 156.141 308.596 156.851 307.896C157.569 307.187 158.442 306.832 159.469 306.832C160.495 306.832 161.363 307.187 162.073 307.896C162.791 308.596 163.151 309.464 163.151 310.5C163.151 311.536 162.791 312.409 162.073 313.118ZM157.509 312.474C158.041 313.006 158.694 313.272 159.469 313.272C160.243 313.272 160.897 313.006 161.429 312.474C161.961 311.933 162.227 311.275 162.227 310.5C162.227 309.725 161.961 309.072 161.429 308.54C160.897 307.999 160.243 307.728 159.469 307.728C158.694 307.728 158.041 307.999 157.509 308.54C156.977 309.072 156.711 309.725 156.711 310.5C156.711 311.275 156.977 311.933 157.509 312.474ZM172.159 306.832C172.943 306.832 173.573 307.084 174.049 307.588C174.534 308.092 174.777 308.773 174.777 309.632V314H173.853V309.632C173.853 309.025 173.694 308.559 173.377 308.232C173.069 307.896 172.658 307.728 172.145 307.728C171.566 307.728 171.095 307.924 170.731 308.316C170.376 308.699 170.199 309.301 170.199 310.122V314H169.275V309.632C169.275 309.016 169.125 308.545 168.827 308.218C168.537 307.891 168.141 307.728 167.637 307.728C167.077 307.728 166.601 307.924 166.209 308.316C165.817 308.708 165.621 309.31 165.621 310.122V314H164.697V307H165.621V308.022C166.125 307.229 166.839 306.832 167.763 306.832C168.771 306.832 169.48 307.257 169.891 308.106C170.395 307.257 171.151 306.832 172.159 306.832ZM181.884 304.2H182.724V314H181.744V305.278L179.546 305.936L179.294 305.096L181.884 304.2Z" fill="white" fill-opacity="0.5"/>
<g clip-path="url(#clip0)">
<path d="M103.5 22C99.3644 22 96 18.6356 96 14.5C96 10.3644 99.3644 7 103.5 7C104.901 7 106.267 7.3888 107.452 8.12455C107.659 8.25301 107.722 8.52505 107.594 8.7321C107.465 8.93912 107.193 9.00302 106.986 8.8741C105.942 8.22518 104.736 7.88238 103.5 7.88238C99.851 7.88238 96.8823 10.8511 96.8823 14.5C96.8823 18.1489 99.851 21.1177 103.5 21.1177C107.149 21.1177 110.118 18.1489 110.118 14.5C110.118 13.7666 109.999 13.0464 109.764 12.3596C109.685 12.1291 109.808 11.8782 110.039 11.7994C110.27 11.7211 110.52 11.8438 110.599 12.0742C110.865 12.8532 111 13.6694 111 14.5C111 18.6356 107.636 22 103.5 22Z" fill="#70FF00"/>
<path d="M103.5 17.0446C103.388 17.0446 103.28 17.0021 103.198 16.9249L99.6684 13.6094C99.4908 13.4426 99.4821 13.1634 99.6489 12.9858C99.8158 12.8084 100.095 12.7992 100.273 12.9665L103.462 15.9631L109.259 9.08207C109.416 8.89571 109.694 8.87183 109.88 9.02897C110.067 9.18592 110.091 9.46417 109.933 9.65052L103.837 16.8877C103.759 16.9803 103.646 17.0368 103.526 17.0439C103.517 17.0444 103.508 17.0446 103.5 17.0446Z" fill="#70FF00"/>
</g>
<g clip-path="url(#clip1)">
<path d="M12.5 68C8.36442 68 5 64.6356 5 60.5C5 56.3644 8.36442 53 12.5 53C13.901 53 15.2674 53.3888 16.452 54.1245C16.659 54.253 16.7224 54.525 16.594 54.7321C16.4653 54.9391 16.1933 55.003 15.9864 54.8741C14.9419 54.2252 13.7362 53.8824 12.5 53.8824C8.85099 53.8824 5.88235 56.8511 5.88235 60.5C5.88235 64.1489 8.85099 67.1177 12.5 67.1177C16.1489 67.1177 19.1177 64.1489 19.1177 60.5C19.1177 59.7666 18.9986 59.0464 18.7638 58.3596C18.685 58.1291 18.8082 57.8782 19.0386 57.7994C19.2696 57.7211 19.52 57.8438 19.5988 58.0742C19.8649 58.8532 20 59.6694 20 60.5C20 64.6356 16.6356 68 12.5 68Z" fill="#70FF00"/>
<path d="M12.4999 63.0446C12.388 63.0446 12.2798 63.0021 12.1979 62.9249L8.66844 59.6094C8.49083 59.4426 8.48209 59.1634 8.64892 58.9858C8.81576 58.8084 9.09493 58.7992 9.27254 58.9665L12.4625 61.9631L18.2589 55.0821C18.4156 54.8957 18.694 54.8718 18.8804 55.029C19.0668 55.1859 19.0906 55.4642 18.9335 55.6505L12.8372 62.8877C12.7593 62.9803 12.6465 63.0368 12.5256 63.0439C12.5171 63.0444 12.5084 63.0446 12.4999 63.0446Z" fill="#70FF00"/>
</g>
<g clip-path="url(#clip2)">
<path d="M12.5 133C8.36442 133 5 129.636 5 125.5C5 121.364 8.36442 118 12.5 118C13.901 118 15.2674 118.389 16.452 119.125C16.659 119.253 16.7224 119.525 16.594 119.732C16.4653 119.939 16.1933 120.003 15.9864 119.874C14.9419 119.225 13.7362 118.882 12.5 118.882C8.85099 118.882 5.88235 121.851 5.88235 125.5C5.88235 129.149 8.85099 132.118 12.5 132.118C16.1489 132.118 19.1177 129.149 19.1177 125.5C19.1177 124.767 18.9986 124.046 18.7638 123.36C18.685 123.129 18.8082 122.878 19.0386 122.799C19.2696 122.721 19.52 122.844 19.5988 123.074C19.8649 123.853 20 124.669 20 125.5C20 129.636 16.6356 133 12.5 133Z" fill="#70FF00"/>
<path d="M12.4999 128.045C12.388 128.045 12.2798 128.002 12.1979 127.925L8.66844 124.609C8.49083 124.443 8.48209 124.163 8.64892 123.986C8.81576 123.808 9.09493 123.799 9.27254 123.967L12.4625 126.963L18.2589 120.082C18.4156 119.896 18.694 119.872 18.8804 120.029C19.0668 120.186 19.0906 120.464 18.9335 120.651L12.8372 127.888C12.7593 127.98 12.6465 128.037 12.5256 128.044C12.5171 128.044 12.5084 128.045 12.4999 128.045Z" fill="#70FF00"/>
</g>
<defs>
<clipPath id="clip0">
<rect width="15" height="15" fill="white" transform="translate(96 7)"/>
</clipPath>
<clipPath id="clip1">
<rect width="15" height="15" fill="white" transform="translate(5 53)"/>
</clipPath>
<clipPath id="clip2">
<rect width="15" height="15" fill="white" transform="translate(5 118)"/>
</clipPath>
</defs>
</svg>
