<svg width="21" height="20" viewBox="0 0 21 20" fill="none" xmlns="http://www.w3.org/2000/svg">
<g clip-path="url(#clip0)">
<path d="M19.9308 5.54437C19.9304 5.54399 19.93 5.54361 19.9296 5.54319L19.9289 5.54384L17.1435 2.93944C16.8668 2.68963 16.426 2.6968 16.1588 2.95546C15.8982 3.20779 15.8982 3.60779 16.1588 3.86012L17.7563 5.35373H13.8665C11.1757 5.3566 8.99509 7.39546 8.99199 9.91142C8.98971 11.7085 7.43222 13.1648 5.51025 13.1669H1.33215C0.947509 13.1669 0.635742 13.4584 0.635742 13.818C0.635742 14.1776 0.947509 14.4691 1.33211 14.4691H5.51021C8.20101 14.4663 10.3816 12.4274 10.3847 9.91142C10.387 8.11436 11.9444 6.65809 13.8664 6.65595H17.7562L16.1595 8.14892C15.8828 8.39873 15.8752 8.81094 16.1424 9.06956C16.4096 9.32822 16.8504 9.33539 17.127 9.08555C17.1328 9.08032 17.1385 9.07498 17.1441 9.06956L19.9295 6.46516C20.2018 6.2112 20.2024 5.79895 19.9308 5.54437Z" fill="#408FED"/>
<path d="M19.9306 13.3575C19.9302 13.3571 19.9298 13.3567 19.9294 13.3563L19.9287 13.357L17.1433 10.7526C16.8667 10.5028 16.4258 10.51 16.1587 10.7686C15.898 11.0209 15.898 11.421 16.1587 11.6732L17.7561 13.1669H13.8663C13.0096 13.1674 12.1829 12.8723 11.5447 12.338C11.2558 12.1006 10.8158 12.1272 10.5619 12.3973C10.3114 12.6639 10.3354 13.069 10.6157 13.3081C11.5092 14.0564 12.6668 14.4698 13.8663 14.469H17.7561L16.1594 15.962C15.8827 16.2118 15.8751 16.624 16.1422 16.8826C16.4094 17.1413 16.8502 17.1485 17.1269 16.8987C17.1326 16.8934 17.1384 16.8881 17.144 16.8826L19.9294 14.2782C20.2017 14.0243 20.2022 13.6121 19.9306 13.3575Z" fill="#408FED"/>
<path d="M8.76077 6.51464C7.86729 5.76636 6.7097 5.35293 5.51021 5.35373H1.33211C0.947509 5.35373 0.635742 5.64523 0.635742 6.00484C0.635742 6.36444 0.947509 6.65595 1.33211 6.65595H5.51021C6.36688 6.65537 7.19361 6.9505 7.83183 7.4848C8.12075 7.72217 8.56071 7.69558 8.81458 7.42547C9.06511 7.15884 9.04116 6.7538 8.76077 6.51464Z" fill="#408FED"/>
</g>
<defs>
<clipPath id="clip0">
<rect width="19.4984" height="18.2312" fill="#408FED" transform="translate(0.635742 0.803467)"/>
</clipPath>
</defs>
</svg>
