<svg width="21" height="21" viewBox="0 0 21 21" fill="none" xmlns="http://www.w3.org/2000/svg">
<g clip-path="url(#clip0)">
<path d="M1.11933 8.26481C1.19367 8.29509 1.27233 8.31015 1.351 8.31015C1.43239 8.31015 1.51378 8.29397 1.59021 8.26177L3.43046 7.48503C3.74337 7.35285 3.89013 6.99204 3.75795 6.67898C3.62577 6.36591 3.26512 6.21931 2.95189 6.35149L2.50168 6.54135C3.89846 3.362 7.05859 1.27148 10.5747 1.27148C14.5949 1.27148 18.1056 3.98989 19.1121 7.88205C19.1837 8.15939 19.4335 8.34348 19.7073 8.34348C19.7582 8.34348 19.8101 8.33707 19.8617 8.32377C20.1907 8.2387 20.3885 7.90304 20.3034 7.57411C19.1565 3.13865 15.1558 0.041008 10.5747 0.041008C6.54541 0.041008 2.92674 2.45036 1.34892 6.1078L1.14112 5.61561C1.0091 5.30255 0.648288 5.15579 0.335223 5.28797C0.0221578 5.42015 -0.124601 5.78096 0.00757802 6.09402L0.784152 7.93412C0.847598 8.08441 0.968082 8.20345 1.11933 8.26481Z" fill="white"/>
<path d="M20.9107 14.863L20.1341 13.0229C20.0706 12.8727 19.95 12.7536 19.7989 12.6921C19.6478 12.6307 19.4783 12.6319 19.328 12.6953L17.4878 13.472C17.1747 13.6041 17.0281 13.965 17.1603 14.2781C17.2923 14.5912 17.6533 14.7378 17.9662 14.6056L18.4815 14.3882C17.1198 17.6527 13.9154 19.8102 10.3435 19.8102C6.32335 19.8102 2.81266 17.0918 1.80618 13.1995C1.7211 12.8706 1.38529 12.673 1.05652 12.7579C0.727594 12.843 0.529885 13.1787 0.614961 13.5076C1.7618 17.9429 5.76243 21.0405 10.3435 21.0405C14.3956 21.0405 18.0324 18.604 19.5958 14.9119L19.777 15.3415C19.8761 15.5763 20.1041 15.7176 20.3441 15.7176C20.4238 15.7176 20.505 15.7019 20.583 15.6689C20.8961 15.5369 21.0427 15.1761 20.9107 14.863Z" fill="white"/>
<path d="M12.0586 4.14257H8.85938C8.51955 4.14257 8.24414 4.41798 8.24414 4.75765V5.86507H7.76733C7.21619 5.86507 6.76758 6.31768 6.76758 6.87396V15.9304C6.76758 16.4867 7.21619 16.9393 7.76733 16.9393H13.1506C13.7018 16.9393 14.1504 16.4867 14.1504 15.9304V6.87396C14.1504 6.31768 13.7018 5.86507 13.1506 5.86507H12.6738V4.75765C12.6738 4.41798 12.3983 4.14257 12.0586 4.14257ZM12.9199 7.09554V15.7087H7.99805V7.09554H8.85938C9.1992 7.09554 9.47461 6.82013 9.47461 6.4803V5.37288H11.4434V6.4803C11.4434 6.82013 11.7188 7.09554 12.0586 7.09554H12.9199Z" fill="white"/>
<path d="M11.3256 10.1118H10.8645L11.3649 9.48021C11.5757 9.21377 11.5309 8.82685 11.2646 8.61584C10.9983 8.40483 10.6112 8.44985 10.4002 8.71614L9.10996 10.3451C8.96353 10.5301 8.93565 10.7825 9.03851 10.9949C9.14121 11.2074 9.35638 11.3423 9.59238 11.3423H10.0431L9.46517 12.0626C9.2524 12.3276 9.29502 12.7148 9.55986 12.9276C9.67345 13.0186 9.80947 13.063 9.94454 13.063C10.1248 13.063 10.3033 12.9842 10.4249 12.8328L11.8055 11.1122C11.9537 10.9276 11.9827 10.6745 11.8803 10.4611C11.7779 10.2475 11.5623 10.1118 11.3256 10.1118Z" fill="white"/>
</g>
<defs>
<clipPath id="clip0">
<rect width="21" height="21" fill="white"/>
</clipPath>
</defs>
</svg>
