<svg width="19" height="19" viewBox="0 0 19 19" fill="none" xmlns="http://www.w3.org/2000/svg">
<g clip-path="url(#clip0)">
<path d="M16.2858 0C15.9111 0 15.6073 0.303806 15.6073 0.678584V3.15738C12.1137 -0.224883 6.53979 -0.134627 3.15753 3.35889C1.56355 5.00531 0.674314 7.20837 0.678727 9.49998C0.678727 9.87476 0.982534 10.1786 1.35731 10.1786C1.73209 10.1786 2.03586 9.87476 2.03586 9.49998C2.03669 5.37758 5.3792 2.03635 9.50163 2.03718C11.5953 2.03758 13.5925 2.91727 15.0061 4.46159L12 5.46382C11.644 5.58227 11.4514 5.96687 11.5698 6.32288C11.6883 6.67889 12.0729 6.87152 12.4289 6.75308L16.5003 5.39595C16.7782 5.30339 16.9654 5.04288 16.9645 4.74997V0.678544C16.9644 0.303806 16.6606 0 16.2858 0Z" fill="white"/>
<path d="M17.6428 8.82141C17.2681 8.82141 16.9643 9.12522 16.9643 9.49999C16.9634 13.6224 13.6209 16.9636 9.49848 16.9628C7.40484 16.9624 5.40766 16.0827 3.99403 14.5384L7.00008 13.5361C7.35609 13.4177 7.54873 13.0331 7.43029 12.6771C7.31184 12.3211 6.92724 12.1284 6.57123 12.2469L2.49981 13.604C2.22188 13.6966 2.03473 13.9571 2.03565 14.25V18.3214C2.03565 18.6962 2.33945 19 2.71423 19C3.08901 19 3.39282 18.6962 3.39282 18.3214V15.8426C6.88637 19.2248 12.4603 19.1346 15.8426 15.6411C17.4365 13.9947 18.3258 11.7916 18.3214 9.49999C18.3214 9.12522 18.0176 8.82141 17.6428 8.82141Z" fill="white"/>
</g>
<defs>
<clipPath id="clip0">
<rect width="19" height="19" fill="white"/>
</clipPath>
</defs>
</svg>
