<svg width="20" height="19" viewBox="0 0 20 19" fill="none" xmlns="http://www.w3.org/2000/svg">
<g clip-path="url(#clip0)">
<path d="M16.3906 0C16.0148 0 15.7102 0.303806 15.7102 0.678584V3.15738C12.2073 -0.224883 6.61845 -0.134627 3.22714 3.35889C1.6289 5.00531 0.73729 7.20837 0.741716 9.49998C0.741716 9.87476 1.04633 10.1786 1.42211 10.1786C1.79789 10.1786 2.10247 9.87476 2.10247 9.49998C2.10331 5.37758 5.45475 2.03635 9.58821 2.03718C11.6875 2.03758 13.69 2.91727 15.1074 4.46159L12.0933 5.46382C11.7363 5.58227 11.5432 5.96687 11.6619 6.32288C11.7807 6.67889 12.1663 6.87152 12.5233 6.75308L16.6056 5.39595C16.8843 5.30339 17.0719 5.04288 17.071 4.74997V0.678544C17.071 0.303806 16.7663 0 16.3906 0Z" fill="white"/>
<path d="M17.7515 8.82146C17.3757 8.82146 17.0711 9.12526 17.0711 9.50004C17.0702 13.6224 13.7188 16.9637 9.58533 16.9628C7.48609 16.9624 5.48357 16.0827 4.06616 14.5384L7.08025 13.5362C7.43721 13.4177 7.63037 13.0332 7.51161 12.6771C7.39284 12.3211 7.00722 12.1285 6.65025 12.2469L2.56794 13.6041C2.28928 13.6966 2.10163 13.9571 2.10254 14.25V18.3215C2.10254 18.6962 2.40716 19.0001 2.78294 19.0001C3.15872 19.0001 3.46334 18.6962 3.46334 18.3215V15.8426C6.96623 19.2249 12.5551 19.1347 15.9464 15.6411C17.5446 13.9947 18.4362 11.7916 18.4318 9.50004C18.4319 9.12526 18.1273 8.82146 17.7515 8.82146Z" fill="white"/>
</g>
<defs>
<clipPath id="clip0">
<rect width="19.0508" height="19" fill="white" transform="translate(0.0615234)"/>
</clipPath>
</defs>
</svg>
