<svg width="19" height="19" viewBox="0 0 19 19" fill="none" xmlns="http://www.w3.org/2000/svg">
<g clip-path="url(#clip0)">
<path d="M18.5509 10.8084C18.3566 10.7598 18.1624 10.8084 17.9924 10.9298C17.3611 11.4639 16.6326 11.901 15.8314 12.1924C15.0786 12.4838 14.2531 12.6294 13.379 12.6294C11.4122 12.6294 9.61537 11.8282 8.32846 10.5413C7.04156 9.25435 6.24028 7.45754 6.24028 5.49076C6.24028 4.6652 6.38596 3.86392 6.62878 3.13548C6.89587 2.35848 7.28437 1.65433 7.79427 1.0473C8.0128 0.780204 7.96424 0.391704 7.69715 0.173173C7.52718 0.0517666 7.33293 0.00320419 7.13868 0.0517666C5.07478 0.610235 3.27797 1.84858 1.99106 3.4997C0.752718 5.12654 0 7.14188 0 9.35148C0 11.9981 1.06837 14.402 2.81662 16.1502C4.56487 17.8985 6.96871 18.9668 9.61537 18.9668C11.8492 18.9668 13.9131 18.1898 15.5643 16.9029C17.2397 15.5918 18.4537 13.7221 18.9636 11.5854C19.085 11.2211 18.8908 10.8812 18.5509 10.8084ZM14.8358 15.8831C13.4275 17.0001 11.6307 17.6799 9.66393 17.6799C7.35721 17.6799 5.26903 16.733 3.76359 15.2275C2.25815 13.7221 1.31119 11.6339 1.31119 9.3272C1.31119 7.40898 1.9425 5.66073 3.03515 4.25242C3.78787 3.28117 4.73484 2.47989 5.82749 1.92142C5.70609 2.18851 5.58468 2.45561 5.48756 2.74698C5.1719 3.62111 5.02621 4.54379 5.02621 5.51504C5.02621 7.82176 5.97318 9.93423 7.47862 11.4397C8.98405 12.9451 11.0965 13.8921 13.4032 13.8921C14.423 13.8921 15.3943 13.7221 16.2927 13.3822C16.6084 13.2608 16.924 13.1393 17.2154 12.9937C16.6326 14.1106 15.8314 15.1061 14.8358 15.8831Z" fill="#418FED"/>
</g>
<defs>
<clipPath id="clip0">
<rect width="19" height="19" fill="white"/>
</clipPath>
</defs>
</svg>
