<svg width="21" height="20" viewBox="0 0 21 20" fill="none" xmlns="http://www.w3.org/2000/svg">
<g clip-path="url(#clip0)">
<path d="M17.1021 5.13459L20.2195 2.21983L18.7498 0.845659L15.6325 3.76041L14.1 2.32763L12.6138 7.94531L18.6881 6.61754L17.1021 5.13459Z" fill="#408FED"/>
<path d="M5.30822 3.76041L2.19088 0.845659L0.721191 2.21983L3.83853 5.13459L2.25245 6.61754L8.32696 7.94531L6.84065 2.32763L5.30822 3.76041Z" fill="#408FED"/>
<path d="M18.6881 13.2206L12.6138 11.8929L14.1 17.5105L15.6325 16.0777L18.7498 18.9924L20.2195 17.6183L17.1021 14.7035L18.6881 13.2206Z" fill="#408FED"/>
<path d="M3.83853 14.7035L0.721191 17.6183L2.19088 18.9924L5.30822 16.0777L6.84065 17.5105L8.32696 11.8929L2.25245 13.2206L3.83853 14.7035Z" fill="#408FED"/>
</g>
<defs>
<clipPath id="clip0">
<rect width="19.4984" height="18.2312" fill="#408FED" transform="translate(0.721191 0.803467)"/>
</clipPath>
</defs>
</svg>
