<svg width="24" height="23" viewBox="0 0 24 23" fill="none" xmlns="http://www.w3.org/2000/svg">
<g clip-path="url(#clip0)">
<path d="M15.7998 3.6785C15.3452 3.5048 14.8362 3.73219 14.6624 4.1866C14.4887 4.64093 14.7162 5.15018 15.1705 5.32392C18.284 6.51457 20.4369 9.51575 20.4369 12.9781C20.4369 17.495 16.7622 21.1697 12.2453 21.1697C7.72838 21.1697 4.05363 17.495 4.05363 12.9781C4.05363 9.51386 6.20759 6.51435 9.31976 5.32405C9.77413 5.15027 10.0016 4.64102 9.82781 4.18669C9.65398 3.73232 9.14465 3.50494 8.69045 3.67863C4.89856 5.12895 2.29199 8.78062 2.29199 12.9781C2.29199 18.4798 6.7441 22.9314 12.2453 22.9314C17.747 22.9314 22.1985 18.4793 22.1985 12.9781C22.1985 8.77877 19.5903 5.12816 15.7998 3.6785Z" fill="white"/>
<path d="M12.2451 0.382355C11.7586 0.382355 11.3643 0.776698 11.3643 1.26318V9.88866C11.3643 10.3751 11.7586 10.7695 12.2451 10.7695C12.7316 10.7695 13.1259 10.3751 13.1259 9.88866V1.26318C13.1259 0.776698 12.7316 0.382355 12.2451 0.382355Z" fill="white"/>
</g>
<defs>
<clipPath id="clip0">
<rect width="22.549" height="22.549" fill="white" transform="translate(0.970703 0.382355)"/>
</clipPath>
</defs>
</svg>
