<svg width="19" height="19" viewBox="0 0 19 19" fill="none" xmlns="http://www.w3.org/2000/svg">
<g clip-path="url(#clip0)">
<path d="M18.4872 8.26408C18.4868 8.26365 18.4864 8.26321 18.4859 8.26278L10.7354 0.512573C10.4051 0.182068 9.96586 0 9.49866 0C9.03146 0 8.59223 0.181923 8.26173 0.512428L0.515294 8.25872C0.512684 8.26133 0.510075 8.26408 0.507466 8.26669C-0.17094 8.94901 -0.16978 10.0561 0.5108 10.7366C0.821736 11.0477 1.2324 11.2279 1.67148 11.2467C1.68931 11.2485 1.70729 11.2494 1.72541 11.2494H2.03431V16.953C2.03431 18.0817 2.95263 19 4.08156 19H7.1138C7.42112 19 7.67044 18.7508 7.67044 18.4434V13.9717C7.67044 13.4566 8.08937 13.0377 8.60441 13.0377H10.3929C10.9079 13.0377 11.3269 13.4566 11.3269 13.9717V18.4434C11.3269 18.7508 11.5761 19 11.8835 19H14.9158C16.0447 19 16.963 18.0817 16.963 16.953V11.2494H17.2494C17.7165 11.2494 18.1557 11.0674 18.4864 10.7369C19.1677 10.0552 19.168 8.94626 18.4872 8.26408Z" fill="black" fill-opacity="0.4"/>
</g>
<defs>
<clipPath id="clip0">
<rect width="19" height="19" fill="white"/>
</clipPath>
</defs>
</svg>
