<svg width="19" height="19" viewBox="0 0 19 19" fill="none" xmlns="http://www.w3.org/2000/svg">
<path d="M9.5 0C4.24891 0 0 4.24928 0 9.5C0 14.7511 4.24928 19 9.5 19C14.7511 19 19 14.7507 19 9.5C19 4.24891 14.7507 0 9.5 0ZM9.5 17.5156C5.0694 17.5156 1.48438 13.9303 1.48438 9.5C1.48438 5.0694 5.0697 1.48438 9.5 1.48438C13.9306 1.48438 17.5156 5.0697 17.5156 9.5C17.5156 13.9306 13.9303 17.5156 9.5 17.5156Z" fill="black"/>
<path d="M9.5 7.95361C9.09009 7.95361 8.75781 8.28589 8.75781 8.6958V13.4752C8.75781 13.8851 9.09009 14.2174 9.5 14.2174C9.90991 14.2174 10.2422 13.8851 10.2422 13.4752V8.6958C10.2422 8.28589 9.90991 7.95361 9.5 7.95361Z" fill="black"/>
<path d="M9.5 7.0448C10.0534 7.0448 10.502 6.59621 10.502 6.04285C10.502 5.48948 10.0534 5.04089 9.5 5.04089C8.94664 5.04089 8.49805 5.48948 8.49805 6.04285C8.49805 6.59621 8.94664 7.0448 9.5 7.0448Z" fill="black"/>
</svg>
