<svg width="19" height="19" viewBox="0 0 19 19" fill="none" xmlns="http://www.w3.org/2000/svg">
<path d="M17.6141 5.4H17.4232V5.2C17.4232 3.9864 16.4459 3 15.2453 3H2.1779C0.977283 3 0 3.9864 0 5.2V12.8C0 14.0136 0.977283 15 2.1779 15H15.2453C16.4459 15 17.4232 14.0136 17.4232 12.8V12.6H17.6141C18.3783 12.6 19 11.972 19 11.2V6.8C19 6.028 18.3783 5.4 17.6141 5.4ZM11.0218 8.416L8.25305 12.8152C8.1794 12.9328 8.0519 13 7.91964 13C7.8745 13 7.82935 12.992 7.7858 12.9768C7.61156 12.9128 7.50386 12.736 7.52682 12.5504L7.86737 9.8L6.72852 9.7984C6.57963 9.7984 6.44421 9.7144 6.37689 9.5816C6.30957 9.448 6.32066 9.288 6.40699 9.1656L9.23905 5.1664C9.34596 5.016 9.54316 4.96 9.71264 5.0296C9.88291 5.1008 9.98191 5.2808 9.95261 5.464L9.57326 7.8L10.6883 7.8016C10.8333 7.8016 10.9655 7.8816 11.0352 8.0096C11.1041 8.1368 11.0994 8.2928 11.0218 8.416Z" fill="black" fill-opacity="0.4"/>
<path d="M0 5C0 3.89543 0.895431 3 2 3H6V15H2C0.89543 15 0 14.1046 0 13V5Z" fill="#02DB0B"/>
</svg>
