<svg width="19" height="20" viewBox="0 0 19 20" fill="none" xmlns="http://www.w3.org/2000/svg">
<g clip-path="url(#clip0)">
<path d="M18.5519 5.01242C12.1054 3.73114 12.5227 3.79805 12.3767 3.82262C12.33 3.83041 11.7578 3.94541 10.4242 4.21212C9.86516 2.59994 8.33131 1.43927 6.53125 1.43927C4.72952 1.43927 3.19445 2.60213 2.63666 4.21668L0.665148 3.82492C0.321516 3.75679 0 4.01948 0 4.37091V17.4334C0 17.699 0.187662 17.9276 0.448133 17.9794C6.84015 19.2498 6.42167 19.1678 6.46404 19.173C6.59845 19.1895 6.18305 19.2582 12.4691 18.001L18.3349 19.1669C18.6787 19.2351 19 18.972 19 18.6209V5.55841C19 5.29282 18.8123 5.06422 18.5519 5.01242ZM6.53125 2.55255C8.18867 2.55255 9.53711 3.90096 9.53711 5.55841C9.53711 6.9568 7.29949 10.5065 6.53125 11.681C5.76386 10.5078 3.52539 6.9571 3.52539 5.55841C3.52539 3.90096 4.87383 2.55255 6.53125 2.55255ZM1.11328 5.04901L2.4199 5.30866C2.41493 5.39131 2.41211 5.47451 2.41211 5.55837C2.41211 6.48663 3.01933 7.98462 4.26851 10.138C4.99793 11.3954 5.717 12.4749 5.97461 12.8552V17.9427L1.11328 16.9765V5.04901ZM7.08789 12.8552C7.34547 12.4749 8.06457 11.3954 8.79399 10.138C10.0432 7.98462 10.6504 6.48663 10.6504 5.55841C10.6504 5.47291 10.6475 5.38808 10.6423 5.30388L11.9121 5.04986V16.9771L7.08789 17.9419V12.8552ZM17.8867 17.9427L13.0254 16.9765V5.04905L17.8867 6.01526V17.9427Z" fill="black"/>
<path d="M6.53125 7.30255C7.49298 7.30255 8.27539 6.52014 8.27539 5.55841C8.27539 4.59668 7.49298 3.81427 6.53125 3.81427C5.56952 3.81427 4.78711 4.59668 4.78711 5.55841C4.78711 6.52014 5.56952 7.30255 6.53125 7.30255ZM6.53125 4.92755C6.87911 4.92755 7.16211 5.21055 7.16211 5.55841C7.16211 5.90628 6.87911 6.18927 6.53125 6.18927C6.18339 6.18927 5.90039 5.90628 5.90039 5.55841C5.90039 5.21055 6.18339 4.92755 6.53125 4.92755Z" fill="black"/>
</g>
<defs>
<clipPath id="clip0">
<rect width="19" height="19" fill="white" transform="translate(0 0.809265)"/>
</clipPath>
</defs>
</svg>
