<svg width="19" height="18" viewBox="0 0 19 18" fill="none" xmlns="http://www.w3.org/2000/svg">
<g clip-path="url(#clip0)">
<path d="M4.53817 3.08092C3.71415 3.30138 3.10913 4.0115 3.10913 4.85181C3.10913 5.69212 3.71415 6.40224 4.53817 6.62283L4.53817 17.4624L5.62052 17.4624L5.62052 6.6227C6.44441 6.40224 7.04957 5.69212 7.04957 4.85181C7.04957 4.0115 6.44441 3.30138 5.62052 3.08079L5.62052 0.190756L4.53817 0.190756L4.53817 3.08092ZM5.96721 4.85181C5.96721 5.30959 5.56894 5.68198 5.07935 5.68198C4.58975 5.68198 4.19148 5.30946 4.19148 4.85181C4.19148 4.39403 4.58975 4.02164 5.07935 4.02164C5.56894 4.02164 5.96721 4.39403 5.96721 4.85181Z" fill="black"/>
<path d="M7.63623 14.2189C7.63623 15.0592 8.24139 15.7693 9.06527 15.9897L9.06527 17.4624L10.1476 17.4624L10.1476 15.9897C10.9716 15.7693 11.5767 15.059 11.5767 14.2187C11.5767 13.3784 10.9716 12.6683 10.1476 12.4478L10.1476 0.190756L9.06527 0.190756L9.06527 12.4478C8.24139 12.6683 7.63623 13.3785 7.63623 14.2189ZM10.4943 14.2189C10.4943 14.6765 10.096 15.0489 9.60645 15.0489C9.11699 15.0489 8.71858 14.6765 8.71858 14.2189C8.71858 13.7611 9.11699 13.3887 9.60645 13.3887C10.096 13.3887 10.4943 13.7611 10.4943 14.2189Z" fill="black"/>
<path d="M12.1636 8.54289C12.1636 9.3832 12.7686 10.0935 13.5926 10.3139L13.5926 17.4624L14.675 17.4624L14.675 10.3139C15.4989 10.0935 16.104 9.3832 16.104 8.54289C16.104 7.70271 15.4989 6.99245 14.675 6.772L14.675 0.190756L13.5926 0.190756L13.5926 6.772C12.7686 6.99245 12.1636 7.70271 12.1636 8.54289ZM15.0217 8.54289C15.0217 9.00067 14.6234 9.37305 14.1338 9.37305C13.6442 9.37305 13.2459 9.00067 13.2459 8.54289C13.2459 8.08524 13.6442 7.71272 14.1338 7.71272C14.6234 7.71272 15.0217 8.08511 15.0217 8.54289Z" fill="black"/>
</g>
<defs>
<clipPath id="clip0">
<rect width="17.2717" height="18.4721" fill="white" transform="translate(0.367188 17.4624) rotate(-90)"/>
</clipPath>
</defs>
</svg>
