<svg width="18" height="18" viewBox="0 0 18 18" fill="none" xmlns="http://www.w3.org/2000/svg">
<g clip-path="url(#clip0)">
<path d="M17.5745 10.2396C17.3905 10.1936 17.2064 10.2396 17.0454 10.3546C16.4473 10.8607 15.7572 11.2747 14.9981 11.5508C14.285 11.8268 13.5029 11.9648 12.6748 11.9648C10.8115 11.9648 9.10929 11.2057 7.89012 9.98654C6.67095 8.76736 5.91184 7.06512 5.91184 5.20186C5.91184 4.41975 6.04986 3.66064 6.27989 2.97054C6.53293 2.23443 6.90098 1.56734 7.38405 0.992258C7.59108 0.739222 7.54507 0.37117 7.29204 0.16414C7.13101 0.049124 6.94699 0.00311746 6.76296 0.049124C4.80768 0.578199 3.10544 1.75137 1.88627 3.31559C0.713101 4.85681 0 6.76608 0 8.85938C0 11.3667 1.01214 13.6441 2.66838 15.3003C4.32461 16.9565 6.60194 17.9687 9.10929 17.9687C11.2256 17.9687 13.1809 17.2326 14.7451 16.0134C16.3323 14.7712 17.4825 13 17.9656 10.9757C18.0806 10.6306 17.8965 10.3086 17.5745 10.2396ZM14.055 15.0473C12.7208 16.1054 11.0186 16.7495 9.1553 16.7495C6.96999 16.7495 4.99171 15.8524 3.56551 14.4262C2.1393 13 1.24218 11.0217 1.24218 8.83637C1.24218 7.01912 1.84026 5.36288 2.87541 4.02869C3.58851 3.10856 4.48564 2.34945 5.52078 1.82038C5.40577 2.07341 5.29075 2.32645 5.19874 2.60249C4.8997 3.4306 4.76168 4.30473 4.76168 5.22486C4.76168 7.41017 5.6588 9.41146 7.08501 10.8377C8.51121 12.2639 10.5125 13.161 12.6978 13.161C13.6639 13.161 14.5841 13 15.4352 12.6779C15.7342 12.5629 16.0333 12.4479 16.3093 12.3099C15.7572 13.368 14.9981 14.3112 14.055 15.0473Z" fill="black"/>
</g>
<defs>
<clipPath id="clip0">
<rect width="18" height="18" fill="white"/>
</clipPath>
</defs>
</svg>
