<svg width="22" height="22" viewBox="0 0 22 22" fill="none" xmlns="http://www.w3.org/2000/svg">
<path d="M10.9999 18.3334C6.9563 18.3334 3.6665 15.0436 3.6665 11C3.6665 6.95641 6.9563 3.66661 10.9999 3.66661C15.0435 3.66661 18.3333 6.95641 18.3333 11C18.3333 15.0436 15.0435 18.3334 10.9999 18.3334ZM10.9999 4.39993C7.36081 4.39993 4.39983 7.36092 4.39983 11C4.39983 14.6391 7.36081 17.6001 10.9999 17.6001C14.639 17.6001 17.6 14.6391 17.6 11C17.6 7.36092 14.639 4.39993 10.9999 4.39993Z" fill="black"/>
<path d="M11 22C10.7976 22 10.6333 21.8357 10.6333 21.6333V19.4333C10.6333 19.2309 10.7976 19.0667 11 19.0667C11.2025 19.0667 11.3668 19.2309 11.3668 19.4333V21.6333C11.3668 21.8357 11.2025 22 11 22Z" fill="black"/>
<path d="M11 2.93329C10.7976 2.93329 10.6333 2.76913 10.6333 2.56671V0.366745C10.6333 0.164322 10.7976 0 11 0C11.2025 0 11.3668 0.164322 11.3668 0.366745V2.56671C11.3668 2.76913 11.2025 2.93329 11 2.93329Z" fill="black"/>
<path d="M2.56671 11.3667H0.366745C0.164322 11.3667 0 11.2024 0 11C0 10.7976 0.164322 10.6333 0.366745 10.6333H2.56671C2.76913 10.6333 2.93329 10.7976 2.93329 11C2.93329 11.2024 2.76913 11.3667 2.56671 11.3667Z" fill="black"/>
<path d="M21.6332 11.3667H19.4332C19.2308 11.3667 19.0667 11.2024 19.0667 11C19.0667 10.7976 19.2308 10.6333 19.4332 10.6333H21.6332C21.8356 10.6333 21.9999 10.7976 21.9999 11C21.9999 11.2024 21.8356 11.3667 21.6332 11.3667Z" fill="black"/>
<path d="M9.16653 16.5C9.11013 16.5 9.05323 16.4872 9.00053 16.4604C8.85047 16.3842 8.77175 16.2152 8.80952 16.0508L9.80569 11.7333H8.06663C7.92278 11.7333 7.7927 11.6494 7.73295 11.5192C7.6732 11.3887 7.69518 11.2353 7.78935 11.1269L12.556 5.62689C12.6665 5.49933 12.8494 5.46375 12.9993 5.53995C13.1497 5.61615 13.2286 5.78534 13.1903 5.9495L12.1941 10.2667H13.9332C14.077 10.2667 14.2071 10.3506 14.2669 10.4809C14.3266 10.6113 14.3046 10.7647 14.2105 10.8731L9.44381 16.3731C9.37231 16.456 9.27043 16.5 9.16653 16.5ZM8.86961 11H10.2666C10.3784 11 10.484 11.051 10.5533 11.1383C10.6229 11.2254 10.6486 11.3399 10.6238 11.4492L9.85554 14.7786L13.1302 11H11.7332C11.6215 11 11.5159 10.949 11.4462 10.8617C11.3769 10.7746 11.3509 10.6601 11.3757 10.5508L12.1443 7.22144L8.86961 11Z" fill="black"/>
<path d="M18.5188 18.8856C18.4249 18.8856 18.3311 18.8495 18.2596 18.7782L16.7042 17.2227C16.5608 17.0794 16.5608 16.8476 16.7042 16.7043C16.8475 16.5609 17.0793 16.5609 17.2227 16.7043L18.7781 18.2597C18.9214 18.403 18.9214 18.6347 18.7781 18.7782C18.7066 18.8495 18.6126 18.8856 18.5188 18.8856Z" fill="black"/>
<path d="M5.03686 5.40315C4.94303 5.40315 4.84904 5.36723 4.77753 5.29573L3.22176 3.7403C3.07842 3.59695 3.07842 3.36533 3.22176 3.22182C3.36477 3.07848 3.5969 3.07848 3.74024 3.22182L5.29601 4.77725C5.43952 4.92059 5.43952 5.15239 5.29601 5.29573C5.22451 5.36757 5.13035 5.40315 5.03686 5.40315Z" fill="black"/>
<path d="M3.48109 18.8856C3.38726 18.8856 3.29327 18.8495 3.22176 18.7782C3.07842 18.6347 3.07842 18.403 3.22176 18.2597L4.77753 16.7043C4.92104 16.5609 5.15301 16.5609 5.29601 16.7043C5.43952 16.8476 5.43952 17.0794 5.29601 17.2227L3.74024 18.7782C3.66874 18.8495 3.57491 18.8856 3.48109 18.8856Z" fill="black"/>
<path d="M16.9633 5.40315C16.8695 5.40315 16.7757 5.36723 16.7042 5.29573C16.5608 5.15239 16.5608 4.92059 16.7042 4.77725L18.2596 3.22182C18.403 3.07848 18.6346 3.07848 18.7781 3.22182C18.9214 3.36533 18.9214 3.59695 18.7781 3.7403L17.2227 5.29573C17.1508 5.36757 17.0572 5.40315 16.9633 5.40315Z" fill="black"/>
</svg>
