<svg width="19" height="19" viewBox="0 0 19 19" fill="none" xmlns="http://www.w3.org/2000/svg">
<g clip-path="url(#clip0)">
<g clip-path="url(#clip1)">
<path d="M234.904 -45.5947L194.797 -50.6933C191.491 -60.8693 187.416 -70.6827 182.659 -80.0053L207.427 -111.899C217.453 -124.805 216.28 -143.024 204.824 -154.117L171.224 -187.717C160.024 -199.28 141.805 -200.432 128.877 -190.427L97.0267 -165.659C87.704 -170.416 77.8907 -174.491 67.6934 -177.797L62.5947 -217.84C60.6747 -233.904 47.0427 -246 30.8933 -246H-16.8933C-33.0427 -246 -46.6747 -233.904 -48.5947 -217.904L-53.6933 -177.797C-63.8907 -174.491 -73.704 -170.437 -83.0267 -165.659L-114.899 -190.427C-127.784 -200.432 -146.003 -199.28 -157.117 -187.824L-190.717 -154.245C-202.28 -143.024 -203.453 -124.805 -193.427 -111.877L-168.659 -80.0053C-173.437 -70.6827 -177.491 -60.8693 -180.797 -50.6933L-220.84 -45.5947C-236.904 -43.6747 -249 -30.0427 -249 -13.8933V33.8933C-249 50.0427 -236.904 63.6747 -220.904 65.5947L-180.797 70.6934C-177.491 80.8694 -173.416 90.6827 -168.659 100.005L-193.427 131.899C-203.453 144.805 -202.28 163.024 -190.824 174.117L-157.224 207.717C-146.003 219.259 -127.805 220.411 -114.877 210.405L-83.0053 185.637C-73.6827 190.416 -63.8693 194.491 -53.6933 197.776L-48.5947 237.797C-46.6747 253.904 -33.0427 266 -16.8933 266H30.8933C47.0427 266 60.6747 253.904 62.5947 237.904L67.6934 197.797C77.8694 194.491 87.6827 190.416 97.0053 185.659L128.899 210.427C141.805 220.453 160.024 219.28 171.117 207.824L204.717 174.224C216.28 163.003 217.453 144.805 207.427 131.877L182.659 100.005C187.437 90.6827 191.512 80.8694 194.797 70.6934L234.819 65.5947C250.883 63.6747 262.979 50.0427 262.979 33.8933V-13.8933C263 -30.0427 250.904 -43.6747 234.904 -45.5947ZM7 116.667C-51.816 116.667 -99.6667 68.816 -99.6667 10C-99.6667 -48.816 -51.816 -96.6667 7 -96.6667C65.816 -96.6667 113.667 -48.816 113.667 10C113.667 68.816 65.816 116.667 7 116.667Z" fill="black"/>
<g clip-path="url(#clip2)">
<path d="M17.0671 7.65408L15.7355 7.48479C15.6257 7.14692 15.4904 6.82108 15.3324 6.51154L16.1548 5.45258C16.4877 5.02404 16.4488 4.41913 16.0684 4.05079L14.9528 2.93517C14.5809 2.55125 13.976 2.513 13.5467 2.84521L12.4892 3.66758C12.1796 3.50962 11.8538 3.37433 11.5152 3.26454L11.3459 1.935C11.2822 1.40163 10.8295 1 10.2933 1H8.70667C8.17046 1 7.71783 1.40163 7.65408 1.93287L7.48479 3.26454C7.14621 3.37433 6.82038 3.50892 6.51083 3.66758L5.45258 2.84521C5.02475 2.513 4.41983 2.55125 4.05079 2.93162L2.93517 4.04654C2.55125 4.41913 2.51229 5.02404 2.84521 5.45329L3.66758 6.51154C3.50892 6.82108 3.37433 7.14692 3.26454 7.48479L1.935 7.65408C1.40163 7.71783 1 8.17046 1 8.70667V10.2933C1 10.8295 1.40163 11.2822 1.93288 11.3459L3.26454 11.5152C3.37433 11.8531 3.50963 12.1789 3.66758 12.4885L2.84521 13.5474C2.51229 13.976 2.55125 14.5809 2.93163 14.9492L4.04725 16.0648C4.41983 16.448 5.02404 16.4863 5.45329 16.1541L6.51154 15.3317C6.82108 15.4904 7.14692 15.6257 7.48479 15.7347L7.65408 17.0636C7.71783 17.5984 8.17046 18 8.70667 18H10.2933C10.8295 18 11.2822 17.5984 11.3459 17.0671L11.5152 15.7355C11.8531 15.6257 12.1789 15.4904 12.4885 15.3324L13.5474 16.1548C13.976 16.4877 14.5809 16.4488 14.9492 16.0684L16.0648 14.9527C16.4488 14.5802 16.4877 13.976 16.1548 13.5467L15.3324 12.4885C15.4911 12.1789 15.6264 11.8531 15.7355 11.5152L17.0643 11.3459C17.5977 11.2822 17.9993 10.8295 17.9993 10.2933V8.70667C18 8.17046 17.5984 7.71783 17.0671 7.65408ZM9.5 13.0417C7.54713 13.0417 5.95833 11.4529 5.95833 9.5C5.95833 7.54712 7.54713 5.95833 9.5 5.95833C11.4529 5.95833 13.0417 7.54712 13.0417 9.5C13.0417 11.4529 11.4529 13.0417 9.5 13.0417Z" fill="black" fill-opacity="0.4"/>
</g>
</g>
</g>
<defs>
<clipPath id="clip0">
<rect width="19" height="19" fill="white"/>
</clipPath>
<clipPath id="clip1">
<rect width="512" height="512" fill="white" transform="translate(-249 -246)"/>
</clipPath>
<clipPath id="clip2">
<rect width="17" height="17" fill="white" transform="translate(1 1)"/>
</clipPath>
</defs>
</svg>
