<svg width="21" height="21" viewBox="0 0 21 21" fill="none" xmlns="http://www.w3.org/2000/svg">
<g clip-path="url(#clip0)">
<path d="M16.9794 6.13953L10.9463 0.16992C10.6932 -0.0564774 10.3103 -0.0564774 10.0572 0.16992L4.02407 6.1078C3.82892 6.31013 3.76717 6.60649 3.86532 6.8699C3.96579 7.1259 4.19632 7.30793 4.46866 7.34622H7.32644V14.6813C7.32596 15.0145 7.59569 15.285 7.92894 15.2854C7.93981 15.2854 7.95069 15.2852 7.96151 15.2845H13.0421C13.3748 15.3021 13.6588 15.0465 13.6763 14.7138C13.6768 14.703 13.6771 14.6921 13.6771 14.6813V7.34616H16.5349C16.8072 7.30787 17.0378 7.12584 17.1383 6.86984C17.2309 6.61621 17.1691 6.33183 16.9794 6.13953ZM13.042 6.07602C12.6927 6.07602 12.4069 6.20304 12.4069 6.55233V14.0144H8.59652V6.55233C8.59652 6.20304 8.31074 6.07602 7.96145 6.07602H6.02452L10.5017 1.69405L14.9789 6.07602H13.042Z" fill="white"/>
<path d="M13.0418 15.9194H7.96124C7.61049 15.9194 7.32617 16.2038 7.32617 16.5545C7.32617 16.9053 7.61049 17.1896 7.96124 17.1896H13.0418C13.3925 17.1896 13.6769 16.9053 13.6769 16.5545C13.6769 16.2038 13.3925 15.9194 13.0418 15.9194Z" fill="white"/>
<path d="M13.0418 17.8246H7.96124C7.61049 17.8246 7.32617 18.1089 7.32617 18.4597C7.32617 18.8104 7.61049 19.0947 7.96124 19.0947H13.0418C13.3925 19.0947 13.6769 18.8104 13.6769 18.4597C13.6769 18.1089 13.3925 17.8246 13.0418 17.8246Z" fill="white"/>
<path d="M13.0418 19.7299H7.96124C7.61049 19.7299 7.32617 20.0142 7.32617 20.3649C7.32617 20.7157 7.61049 21 7.96124 21H13.0418C13.3925 21 13.6769 20.7157 13.6769 20.3649C13.6769 20.0142 13.3925 19.7299 13.0418 19.7299Z" fill="white"/>
</g>
<defs>
<clipPath id="clip0">
<rect width="21" height="21" fill="white"/>
</clipPath>
</defs>
</svg>
